%TF.GenerationSoftware,KiCad,Pcbnew,7.0.6*%
%TF.CreationDate,2023-09-04T10:50:04+01:00*%
%TF.ProjectId,working,776f726b-696e-4672-9e6b-696361645f70,rev?*%
%TF.SameCoordinates,Original*%
%TF.FileFunction,Legend,Bot*%
%TF.FilePolarity,Positive*%
%FSLAX46Y46*%
G04 Gerber Fmt 4.6, Leading zero omitted, Abs format (unit mm)*
G04 Created by KiCad (PCBNEW 7.0.6) date 2023-09-04 10:50:04*
%MOMM*%
%LPD*%
G01*
G04 APERTURE LIST*
%ADD10C,0.150000*%
%ADD11C,0.120000*%
G04 APERTURE END LIST*
D10*
X1562295Y2766666D02*
X2133723Y2766666D01*
X2133723Y2766666D02*
X2248009Y2804761D01*
X2248009Y2804761D02*
X2324200Y2880952D01*
X2324200Y2880952D02*
X2362295Y2995237D01*
X2362295Y2995237D02*
X2362295Y3071428D01*
X2362295Y1966666D02*
X2362295Y2423809D01*
X2362295Y2195237D02*
X1562295Y2195237D01*
X1562295Y2195237D02*
X1676580Y2271428D01*
X1676580Y2271428D02*
X1752771Y2347618D01*
X1752771Y2347618D02*
X1790866Y2423809D01*
D11*
%TO.C,U2*%
X3860000Y-4610000D02*
X3860000Y-4370000D01*
X3860000Y4370000D02*
X5675000Y4370000D01*
X3860000Y4610000D02*
X3860000Y4370000D01*
X0Y-4610000D02*
X3860000Y-4610000D01*
X0Y-4610000D02*
X-3860000Y-4610000D01*
X0Y4610000D02*
X3860000Y4610000D01*
X0Y4610000D02*
X-3860000Y4610000D01*
X-3860000Y-4610000D02*
X-3860000Y-4370000D01*
X-3860000Y4610000D02*
X-3860000Y4370000D01*
%TO.C,J1*%
X715000Y4110000D02*
X-1785000Y4110000D01*
X-1785000Y4110000D02*
X-1785000Y3060000D01*
X-1785000Y3060000D02*
X-2775000Y3060000D01*
X2685000Y2940000D02*
X2685000Y-940000D01*
X715000Y-2110000D02*
X-1785000Y-2110000D01*
X-1785000Y-2110000D02*
X-1785000Y-1060000D01*
%TD*%
M02*
